# xmcd
#
# Track frame offsets:
#	150
#	17192
#	25651
#	37489
#	48290
#	64440
#	77118
#	89722
#	105964
#	116315
#	128974
#	141614
#	151431
#	161228
#	171722
#	179666
#	190557
#	200764
#
# Disc length: 2779 seconds
#
# Revision: 1
# Processed by: cddbd v1.5.1PL2 Copyright (c) Steve Scherf et al.
# Submitted via: audiograbber 1.83.01
#
DISCID=100ad912
DTITLE=Johnny Cash - 18 Classic Tracks CD2
DYEAR=2005
DGENRE=Country
TTITLE0=Sunday Morning Coming Down
TTITLE1=Country Boy
TTITLE2=Thanks A Lot
TTITLE3=Open Road
TTITLE4=A Boy Named Sue
TTITLE5=Long Black Veil
TTITLE6=Jackson
TTITLE7=City Of New Orleans
TTITLE8=If I Were A Carpenter
TTITLE9=Peace In The Valley
TTITLE10=Ring Of Fire
TTITLE11=Story Of A Broken Heart
TTITLE12=Born To Lose
TTITLE13=Cold Cold Heart
TTITLE14=I Can't Help (If I'm Still In Love With You)
TTITLE15=I Heard That Lonesome Whistle
TTITLE16=I Was There When It Happened
TTITLE17=If The Good Lord's Willing
EXTD=
EXTT0=
EXTT1=
EXTT2=
EXTT3=
EXTT4=
EXTT5=
EXTT6=
EXTT7=
EXTT8=
EXTT9=
EXTT10=
EXTT11=
EXTT12=
EXTT13=
EXTT14=
EXTT15=
EXTT16=
EXTT17=
PLAYORDER=
